HIERARCHY
ROOT Hips
{
    OFFSET   0.000000   0.000000   0.000000
    CHANNELS 6 Xposition Yposition Zposition Zrotation Xrotation Yrotation
    JOINT Chest
    {
        OFFSET   0.000000   8.007230   0.000000
        CHANNELS 3 Zrotation Xrotation Yrotation
        JOINT Chest2
        {
            OFFSET   0.000000  22.077100   0.000000
            CHANNELS 3 Zrotation Xrotation Yrotation
            JOINT Neck
            {
                OFFSET   0.000000  23.254800  -0.000021
                CHANNELS 3 Zrotation Xrotation Yrotation
                JOINT Head
                {
                    OFFSET   0.000000  14.370000   1.956610
                    CHANNELS 3 Zrotation Xrotation Yrotation
                    End Site
                    {
                        OFFSET   0.000000  19.566000   0.000000
                    }
                }
            }
            JOINT LeftCollar
            {
                OFFSET   3.911900  19.017000  -0.467063
                CHANNELS 3 Zrotation Xrotation Yrotation
                JOINT LeftShoulder
                {
                    OFFSET  10.383700   0.000000   0.000000
                    CHANNELS 3 Zrotation Xrotation Yrotation
                    JOINT LeftElbow
                    {
                        OFFSET  26.662100   0.001529   0.000325
                        CHANNELS 3 Zrotation Xrotation Yrotation
                        JOINT LeftWrist
                        {
                            OFFSET  28.869000  -0.000011  -0.000096
                            CHANNELS 3 Zrotation Xrotation Yrotation
                            JOINT LeftFinger0
                            {
                                OFFSET   2.044650  -2.323460   3.252850
                                CHANNELS 3 Zrotation Xrotation Yrotation
                                JOINT LeftFinger01
                                {
                                    OFFSET   3.088130   0.000000   0.000000
                                    CHANNELS 3 Zrotation Xrotation Yrotation
                                    JOINT LeftFinger02
                                    {
                                        OFFSET   2.639460   0.000000   0.000000
                                        CHANNELS 3 Zrotation Xrotation Yrotation
                                        End Site
                                        {
                                            OFFSET   2.582190   0.000000   0.000000
                                        }
                                    }
                                }
                            }
                            JOINT LeftFinger1
                            {
                                OFFSET   8.364480   0.000000   3.252850
                                CHANNELS 3 Zrotation Xrotation Yrotation
                                JOINT LeftFinger11
                                {
                                    OFFSET   4.646930   0.000000   0.000000
                                    CHANNELS 3 Zrotation Xrotation Yrotation
                                    JOINT LeftFinger12
                                    {
                                        OFFSET   2.323460   0.000000   0.000000
                                        CHANNELS 3 Zrotation Xrotation Yrotation
                                        End Site
                                        {
                                            OFFSET   2.273050   0.000000   0.000000
                                        }
                                    }
                                }
                            }
                            JOINT LeftFinger2
                            {
                                OFFSET   8.364480   0.000016   1.078090
                                CHANNELS 3 Zrotation Xrotation Yrotation
                                JOINT LeftFinger21
                                {
                                    OFFSET   5.111620   0.000000   0.000000
                                    CHANNELS 3 Zrotation Xrotation Yrotation
                                    JOINT LeftFinger22
                                    {
                                        OFFSET   2.788160   0.000017   0.000000
                                        CHANNELS 3 Zrotation Xrotation Yrotation
                                        End Site
                                        {
                                            OFFSET   2.727660   0.000000   0.000000
                                        }
                                    }
                                }
                            }
                            JOINT LeftFinger3
                            {
                                OFFSET   7.899780   0.000015  -1.078090
                                CHANNELS 3 Zrotation Xrotation Yrotation
                                JOINT LeftFinger31
                                {
                                    OFFSET   4.646920   0.000000   0.000000
                                    CHANNELS 3 Zrotation Xrotation Yrotation
                                    JOINT LeftFinger32
                                    {
                                        OFFSET   2.323470   0.000000   0.000000
                                        CHANNELS 3 Zrotation Xrotation Yrotation
                                        End Site
                                        {
                                            OFFSET   2.273050   0.000000   0.000000
                                        }
                                    }
                                }
                            }
                            JOINT LeftFinger4
                            {
                                OFFSET   7.435090   0.000000  -3.252850
                                CHANNELS 3 Zrotation Xrotation Yrotation
                                JOINT LeftFinger41
                                {
                                    OFFSET   3.717550   0.000000   0.000000
                                    CHANNELS 3 Zrotation Xrotation Yrotation
                                    JOINT LeftFinger42
                                    {
                                        OFFSET   1.858760   0.000000   0.000000
                                        CHANNELS 3 Zrotation Xrotation Yrotation
                                        End Site
                                        {
                                            OFFSET   1.818440   0.000000   0.000000
                                        }
                                    }
                                }
                            }
                        }
                    }
                }
            }
            JOINT RightCollar
            {
                OFFSET  -3.911900  19.017000  -0.467062
                CHANNELS 3 Zrotation Xrotation Yrotation
                JOINT RightShoulder
                {
                    OFFSET -10.383700   0.000015   0.000000
                    CHANNELS 3 Zrotation Xrotation Yrotation
                    JOINT RightElbow
                    {
                        OFFSET -26.662100   0.001341   0.000385
                        CHANNELS 3 Zrotation Xrotation Yrotation
                        JOINT RightWrist
                        {
                            OFFSET -28.869000   0.000025  -0.000080
                            CHANNELS 3 Zrotation Xrotation Yrotation
                            JOINT RightFinger0
                            {
                                OFFSET  -2.044650  -2.323490   3.252850
                                CHANNELS 3 Zrotation Xrotation Yrotation
                                JOINT RightFinger01
                                {
                                    OFFSET  -3.088130   0.000000   0.000000
                                    CHANNELS 3 Zrotation Xrotation Yrotation
                                    JOINT RightFinger02
                                    {
                                        OFFSET  -2.639460   0.000000   0.000000
                                        CHANNELS 3 Zrotation Xrotation Yrotation
                                        End Site
                                        {
                                            OFFSET  -2.582190   0.000000   0.000000
                                        }
                                    }
                                }
                            }
                            JOINT RightFinger1
                            {
                                OFFSET  -8.364480   0.000000   3.252850
                                CHANNELS 3 Zrotation Xrotation Yrotation
                                JOINT RightFinger11
                                {
                                    OFFSET  -4.646930   0.000000   0.000000
                                    CHANNELS 3 Zrotation Xrotation Yrotation
                                    JOINT RightFinger12
                                    {
                                        OFFSET  -2.323470   0.000000   0.000000
                                        CHANNELS 3 Zrotation Xrotation Yrotation
                                        End Site
                                        {
                                            OFFSET  -2.273050   0.000000   0.000000
                                        }
                                    }
                                }
                            }
                            JOINT RightFinger2
                            {
                                OFFSET  -8.364480   0.000000   1.078090
                                CHANNELS 3 Zrotation Xrotation Yrotation
                                JOINT RightFinger21
                                {
                                    OFFSET  -5.111610   0.000000   0.000000
                                    CHANNELS 3 Zrotation Xrotation Yrotation
                                    JOINT RightFinger22
                                    {
                                        OFFSET  -2.788160   0.000000   0.000000
                                        CHANNELS 3 Zrotation Xrotation Yrotation
                                        End Site
                                        {
                                            OFFSET  -2.727660   0.000000   0.000000
                                        }
                                    }
                                }
                            }
                            JOINT RightFinger3
                            {
                                OFFSET  -7.899780   0.000000  -1.078090
                                CHANNELS 3 Zrotation Xrotation Yrotation
                                JOINT RightFinger31
                                {
                                    OFFSET  -4.646920   0.000000   0.000000
                                    CHANNELS 3 Zrotation Xrotation Yrotation
                                    JOINT RightFinger32
                                    {
                                        OFFSET  -2.323470   0.000000   0.000000
                                        CHANNELS 3 Zrotation Xrotation Yrotation
                                        End Site
                                        {
                                            OFFSET  -2.273050   0.000000   0.000000
                                        }
                                    }
                                }
                            }
                            JOINT RightFinger4
                            {
                                OFFSET  -7.435090   0.000000  -3.252850
                                CHANNELS 3 Zrotation Xrotation Yrotation
                                JOINT RightFinger41
                                {
                                    OFFSET  -3.717550   0.000000   0.000000
                                    CHANNELS 3 Zrotation Xrotation Yrotation
                                    JOINT RightFinger42
                                    {
                                        OFFSET  -1.858770   0.000000   0.000000
                                        CHANNELS 3 Zrotation Xrotation Yrotation
                                        End Site
                                        {
                                            OFFSET  -1.818440   0.000000   0.000000
                                        }
                                    }
                                }
                            }
                        }
                    }
                }
            }
        }
    }
    JOINT LeftHip
    {
        OFFSET   9.783010   0.000000   0.000000
        CHANNELS 3 Zrotation Xrotation Yrotation
        JOINT LeftKnee
        {
            OFFSET   0.000070 -41.789100   0.000028
            CHANNELS 3 Zrotation Xrotation Yrotation
            JOINT LeftAnkle
            {
                OFFSET   0.000087 -41.133200  -0.000100
                CHANNELS 3 Zrotation Xrotation Yrotation
                JOINT LeftToe
                {
                    OFFSET   0.000000  -6.358960  14.674500
                    CHANNELS 3 Zrotation Xrotation Yrotation
                    End Site
                    {
                        OFFSET   0.000000   0.000000   3.913200
                    }
                }
            }
        }
    }
    JOINT RightHip
    {
        OFFSET  -9.783020   0.000000   0.000000
        CHANNELS 3 Zrotation Xrotation Yrotation
        JOINT RightKnee
        {
            OFFSET   0.000044 -41.789100  -0.000870
            CHANNELS 3 Zrotation Xrotation Yrotation
            JOINT RightAnkle
            {
                OFFSET  -0.000090 -41.133200  -0.000245
                CHANNELS 3 Zrotation Xrotation Yrotation
                JOINT RightToe
                {
                    OFFSET   0.000000  -6.358960  14.674500
                    CHANNELS 3 Zrotation Xrotation Yrotation
                    End Site
                    {
                        OFFSET   0.000000   0.000000   3.913200
                    }
                }
            }
        }
    }
}
MOTION
Frames: 5
Frame Time:   0.016667
 -0.066202  89.492100   1.010700  -1.137510  -1.232600   0.563114   0.827058   0.791103  -1.237470   1.671240   1.564070  -2.486560  -1.734890   1.156120   0.038159  -2.855440   2.340850   7.703070  -3.641870   3.853560   9.647070 -80.149200   3.300600   5.136820   1.017080   6.161570 -16.368200   9.682440  -8.224100  -0.873899  39.099900  28.979300 -48.067600 -30.162600   0.000996   0.000676 -10.081300   0.003318  -0.000000 -29.429000  -2.146120   3.806720 -24.136500  -0.000531   0.001243 -16.895500  -0.000315   0.000388 -28.549700  -3.831510   7.006940 -41.303600   0.003310   0.008699 -27.508200  -0.001292   0.005952 -27.743100  -3.732960   7.059990 -31.790000   0.000306   0.003932 -21.172100   0.004859   0.000413 -27.470100  -3.703450   7.078020 -41.548300  -0.002178  -0.005835 -27.671200  -0.001800  -0.006191   5.872290   4.805030   6.517130  73.903000  -7.821720  -3.502960   3.925990  -5.094510  11.762600 -19.842300   2.660310   4.171510 -47.227700  42.275700  85.592800  23.974000  -0.005238   0.002427   6.991900   0.006840  -0.007093  32.811500  -1.329630  -2.052080  26.865400   0.009318   0.000000  18.805800  -0.001983  -0.004492  29.640900  -2.791840  -4.892490  44.633000  -0.010887  -0.001345  29.717900  -0.001109  -0.012454  31.131900  -3.790760  -6.244350  47.008600  -0.005600  -0.004878  31.305400  -0.009949  -0.007033  41.340500  -4.837300  -5.475090  62.345900  -0.013884  -0.010515  41.528300  -0.000404  -0.010768   2.892770   3.005920  -1.809630   0.311355   0.283696   9.456320  -2.645800  -2.386750  -0.801472  -0.000000   0.000000   0.000000  -0.448038   3.174750  -2.780790  -0.072708   2.242530 -13.184300   1.289710  -3.565330  -2.157820   0.000000   0.000000   0.000000
 -0.066142  89.492200   1.015210  -1.137410  -1.243090   0.562827   0.827075   0.805628  -1.235390   1.671570   1.593150  -2.482630  -1.734890   1.156550   0.038177  -2.855270   2.341350   7.703760  -3.643930   3.843370   9.641730 -80.147000   3.315680   5.137130   1.012380   6.146190 -16.368200   9.681710  -8.235690  -0.866871  39.092800  28.976900 -48.074900 -30.174600   0.000980   0.000633 -10.087400   0.003314  -0.000000 -29.442300  -2.149600   3.807050 -24.147500  -0.000533   0.001243 -16.903300  -0.000321   0.000379 -28.549600  -3.831580   7.007020 -41.322400   0.003307   0.008694 -27.520700  -0.001295   0.005948 -27.743100  -3.733020   7.060080 -31.804900   0.000301   0.003935 -21.182000   0.004857   0.000404 -27.476600  -3.703500   7.078070 -41.558200  -0.002180  -0.005830 -27.677800  -0.001797  -0.006183   5.872720   4.794810   6.512320  73.903800  -7.808090  -3.502840   3.938760  -5.101530  11.758200 -19.835100   2.669070   4.166180 -47.220500  42.274700  85.580800  23.978600  -0.005288   0.002439   6.992070   0.006856  -0.007082  32.811400  -1.329630  -2.056380  26.865400   0.009327  -0.000000  18.805800  -0.001991  -0.004470  29.640900  -2.791840  -4.892490  44.636600  -0.010885  -0.001316  29.717500  -0.001078  -0.012449  31.137400  -3.789480  -6.241940  47.016600  -0.005612  -0.004852  31.305300  -0.009943  -0.007016  41.340500  -4.835510  -5.473030  62.350300  -0.013901  -0.010500  41.528300  -0.000395  -0.010769   2.894900   3.025690  -1.809650   0.308845   0.272523   9.460080  -2.645950  -2.386520  -0.804825  -0.000000   0.000000  -0.000000  -0.447781   3.156420  -2.771750  -0.074346   2.278270 -13.198100   1.289810  -3.565690  -2.157870   0.000000   0.000000   0.000000
 -0.066035  89.492200   1.023270  -1.137230  -1.261840   0.562543   0.827144   0.829902  -1.231560   1.672200   1.641750  -2.475350  -1.734900   1.159530   0.038216  -2.855640   2.344810   7.707990  -3.647690   3.828560   9.634260 -80.142800   3.341770   5.137490   1.004960   6.121610 -16.367900   9.677290  -8.248040  -0.857018  39.081900  28.976600 -48.083500 -30.193400   0.000937   0.000570 -10.096700   0.003307  -0.000000 -29.460700  -2.155470   3.809370 -24.162800  -0.000538   0.001242 -16.914000  -0.000337   0.000355 -28.549500  -3.831730   7.007180 -41.341200   0.003299   0.008681 -27.533200  -0.001301   0.005938 -27.742900  -3.733130   7.060240 -31.819700   0.000288   0.003946 -21.191900   0.004853   0.000380 -27.483000  -3.703550   7.078160 -41.568000  -0.002184  -0.005820 -27.684300  -0.001787  -0.006162   5.873320   4.778250   6.503980  73.905500  -7.781110  -3.502620   3.958760  -5.116870  11.753300 -19.821700   2.680440   4.160860 -47.213400  42.273700  85.568800  23.986500  -0.005413   0.002485   6.993250   0.006895  -0.007064  32.811200  -1.329620  -2.060680  26.865300   0.009349   0.000000  18.805800  -0.002012  -0.004418  29.640900  -2.791840  -4.892490  44.640300  -0.010879  -0.001249  29.717200  -0.001008  -0.012436  31.143500  -3.785240  -6.234840  47.024600  -0.005640  -0.004791  31.305200  -0.009926  -0.006971  41.339200  -4.829850  -5.466990  62.354800  -0.013940  -0.010463  41.528300  -0.000374  -0.010772   2.900760   3.057650  -1.809700   0.302216   0.261349   9.466240  -2.646290  -2.386280  -0.810871   0.000000   0.000000  -0.000000  -0.447883   3.138090  -2.756070  -0.075575   2.313910 -13.221700   1.289910  -3.566040  -2.157970  -0.000000   0.000000  -0.000000
 -0.065932  89.491300   1.030910  -1.139700  -1.279410   0.564218   0.827253   0.849661  -1.227690   1.672710   1.681310  -2.467910  -1.738290   1.166130   0.038280  -2.860250   2.357040   7.718380  -3.652440   3.821240   9.631070 -80.136300   3.362830   5.136800   0.999809   6.104730 -16.365400   9.665470  -8.248920  -0.854015  39.077100  28.984600 -48.088100 -30.208400   0.000867   0.000544 -10.103400   0.003298  -0.000000 -29.466700  -2.161530   3.818240 -24.168100  -0.000547   0.001240 -16.917700  -0.000361   0.000317 -28.549400  -3.831920   7.007370 -41.339400   0.003284   0.008660 -27.532000  -0.001312   0.005925 -27.742700  -3.733280   7.060440 -31.815300   0.000265   0.003965 -21.188000   0.004846   0.000342 -27.476700  -3.703540   7.078270 -41.558700  -0.002190  -0.005806 -27.678000  -0.001773  -0.006128   5.873690   4.766570   6.497050  73.910900  -7.750700  -3.507090   3.972550  -5.138910  11.753000 -19.807200   2.682140   4.171230 -47.213300  42.275600  85.569600  23.994600  -0.005615   0.002585   6.998560   0.006954  -0.007048  32.811400  -1.327100  -2.057100  26.865400   0.009382   0.000000  18.805800  -0.002045  -0.004341  29.634800  -2.788910  -4.888450  44.631000  -0.010866  -0.001152  29.717300  -0.000905  -0.012415  31.141000  -3.776980  -6.222110  47.019200  -0.005680  -0.004705  31.305100  -0.009901  -0.006901  41.332600  -4.819110  -5.456240  62.344800  -0.013999  -0.010404  41.521600  -0.000346  -0.010778   2.910630   3.077280  -1.809730   0.293340   0.263786   9.472040  -2.648050  -2.395680  -0.816596  -0.000000   0.000000   0.000000  -0.448387   3.159750  -2.741010  -0.072683   2.306950 -13.242800   1.286920  -3.565600  -2.158100   0.000000   0.000000   0.000000
 -0.065830  89.489800   1.039200  -1.144030  -1.298600   0.568323   0.827479   0.869105  -1.223450   1.673610   1.720250  -2.459730  -1.744260   1.176540   0.038324  -2.867920   2.379140   7.731480  -3.655440   3.816610   9.630000 -80.133100   3.388730   5.133220   0.994534   6.088280 -16.357800   9.652680  -8.249050  -0.851351  39.076000  28.990400 -48.091300 -30.216600   0.000783   0.000519 -10.106800   0.003289  -0.000000 -29.469500  -2.165200   3.825120 -24.170700  -0.000559   0.001240 -16.919600  -0.000393   0.000268 -28.549300  -3.832100   7.007500 -41.337700   0.003264   0.008631 -27.530900  -0.001327   0.005909 -27.742600  -3.733410   7.060570 -31.810100   0.000235   0.003990 -21.184200   0.004838   0.000293 -27.467800  -3.703450   7.078350 -41.545200  -0.002199  -0.005788 -27.669100  -0.001753  -0.006084   5.873630   4.754190   6.488950  73.921200  -7.714900  -3.517910   3.983450  -5.161250  11.753300 -19.794700   2.683790   4.195590 -47.212700  42.283900  85.576000  24.000700  -0.005848   0.002695   7.002850   0.007022  -0.007033  32.811900  -1.320440  -2.046940  26.865400   0.009424   0.000000  18.805800  -0.002087  -0.004250  29.629200  -2.782280  -4.878140  44.621600  -0.010851  -0.001044  29.717900  -0.000791  -0.012390  31.137000  -3.767140  -6.206870  47.011900  -0.005730  -0.004607  31.305100  -0.009872  -0.006814  41.325200  -4.806380  -5.443280  62.330800  -0.014068  -0.010331  41.512300  -0.000316  -0.010787   2.922520   3.103430  -1.809780   0.281305   0.266224   9.475450  -2.649770  -2.405080  -0.823024  -0.000000   0.000000  -0.000000  -0.447438   3.210110  -2.727740  -0.067875   2.282060 -13.262100   1.280800  -3.565160  -2.158190  -0.000000   0.000000  -0.000000
